<svg width="24" height="24" viewBox="0 0 24 24" fill="none" xmlns="http://www.w3.org/2000/svg">
<path d="M12 0C5.374 0 0 5.373 0 12C0 18.627 5.374 24 12 24C18.626 24 24 18.627 24 12C24 5.373 18.626 0 12 0ZM17.568 8.16C17.388 10.109 16.608 14.811 16.212 17.028C16.044 17.972 15.708 18.288 15.384 18.324C14.688 18.396 14.148 17.856 13.476 17.388C12.444 16.704 11.844 16.284 10.848 15.624C9.636 14.808 10.404 14.388 11.088 13.668C11.268 13.488 14.328 10.788 14.388 10.548C14.4 10.512 14.4 10.392 14.328 10.332C14.256 10.272 14.148 10.296 14.076 10.32C13.968 10.356 12.192 11.568 8.736 13.956C8.196 14.316 7.716 14.496 7.296 14.484C6.828 14.472 5.928 14.196 5.268 13.956C4.476 13.668 3.84 13.512 3.9 13.044C3.924 12.804 4.296 12.564 5.004 12.312C8.52 10.788 10.788 9.756 11.808 9.216C15.156 7.824 15.864 7.56 16.332 7.56C16.44 7.56 16.68 7.584 16.824 7.704C16.944 7.8 16.98 7.932 16.992 8.028C16.98 8.088 17.004 8.268 16.992 8.4C17.004 8.52 17.004 8.64 16.992 8.76"
 fill="#0088CC"/>
</svg>