<svg width="24" height="24" viewBox="0 0 24 24" fill="none" xmlns="http://www.w3.org/2000/svg">
<path d="M12.186 24H12.145C5.484 24 0 18.516 0 11.855C0 5.194 5.484 -0.29 12.145 -0.29C18.806 -0.29 24.29 5.194 24.29 11.855C24.29 18.516 18.806 24 12.145 24H12.186ZM12.145 0.742C6.051 0.742 1.032 5.761 1.032 11.855C1.032 17.949 6.051 22.968 12.145 22.968C18.239 22.968 23.258 17.949 23.258 11.855C23.258 5.761 18.239 0.742 12.145 0.742Z" fill="black"/>
<path d="M17.368 11.855C17.368 13.581 16.5 15.081 15.194 15.968C15.581 15.387 15.806 14.677 15.806 13.887C15.806 11.968 14.5 10.387 12.742 9.984C12.871 9.677 12.935 9.323 12.935 8.935C12.935 7.677 11.919 6.661 10.661 6.661C9.403 6.661 8.387 7.677 8.387 8.935C8.387 10.193 9.403 11.209 10.661 11.209C10.935 11.209 11.194 11.161 11.435 11.081C12.774 11.484 13.774 12.677 13.774 14.113C13.774 15.855 12.355 17.274 10.613 17.274C8.871 17.274 7.452 15.855 7.452 14.113C7.452 12.371 8.871 10.952 10.613 10.952C11.081 10.952 11.516 11.064 11.903 11.258C11.548 10.677 10.903 10.29 10.177 10.29C8.871 10.29 7.806 11.355 7.806 12.661C7.806 13.967 8.871 15.032 10.177 15.032C11.483 15.032 12.548 13.967 12.548 12.661C12.548 12.387 12.5 12.129 12.419 11.887C13.758 12.29 14.758 13.484 14.758 14.919C14.758 16.661 13.339 18.08 11.597 18.08C9.855 18.08 8.436 16.661 8.436 14.919C8.436 13.177 9.855 11.758 11.597 11.758C12.065 11.758 12.5 11.871 12.887 12.064C12.532 11.484 11.887 11.097 11.161 11.097C9.855 11.097 8.79 12.161 8.79 13.468C8.79 14.774 9.855 15.839 11.161 15.839C12.468 15.839 13.532 14.774 13.532 13.468V11.855C13.532 9.5 15.435 7.597 17.79 7.597H17.368V11.855Z" fill="black"/>
</svg>